<svg width="315" height="140" viewBox="0 0 315 140" fill="none" xmlns="http://www.w3.org/2000/svg">
<path d="M25.824 96.152C21.216 96.152 17.12 95.288 13.536 93.56C9.952 91.768 6.912 89.464 4.416 86.648L7.296 83.576C9.6 86.2 12.352 88.28 15.552 89.816C18.752 91.352 22.176 92.12 25.824 92.12C30.688 92.12 34.528 90.968 37.344 88.664C40.16 86.296 41.568 83.224 41.568 79.448C41.568 77.464 41.248 75.8 40.608 74.456C40.032 73.048 39.232 71.864 38.208 70.904C37.184 69.88 35.968 69.016 34.56 68.312C33.216 67.608 31.776 66.904 30.24 66.2L20.64 61.88C19.296 61.304 17.856 60.6 16.32 59.768C14.784 58.936 13.376 57.912 12.096 56.696C10.88 55.416 9.856 53.944 9.024 52.28C8.192 50.552 7.776 48.504 7.776 46.136C7.776 43.832 8.224 41.752 9.12 39.896C10.08 37.976 11.36 36.344 12.96 35C14.624 33.592 16.576 32.504 18.816 31.736C21.12 30.968 23.584 30.584 26.208 30.584C30.048 30.584 33.44 31.352 36.384 32.888C39.392 34.36 41.856 36.12 43.776 38.168L41.28 41.048C39.424 39.128 37.248 37.592 34.752 36.44C32.256 35.224 29.408 34.616 26.208 34.616C21.984 34.616 18.592 35.64 16.032 37.688C13.472 39.736 12.192 42.488 12.192 45.944C12.192 47.8 12.544 49.368 13.248 50.648C13.952 51.928 14.848 53.048 15.936 54.008C17.024 54.904 18.208 55.704 19.488 56.408C20.768 57.048 21.984 57.624 23.136 58.136L32.736 62.36C34.528 63.128 36.224 63.992 37.824 64.952C39.424 65.912 40.832 67.032 42.048 68.312C43.264 69.592 44.224 71.128 44.928 72.92C45.696 74.648 46.08 76.728 46.08 79.16C46.08 81.592 45.6 83.864 44.64 85.976C43.68 88.024 42.304 89.816 40.512 91.352C38.784 92.824 36.672 94.008 34.176 94.904C31.68 95.736 28.896 96.152 25.824 96.152ZM80.7825 96.152C77.7745 96.152 74.9905 95.608 72.4305 94.52C69.9345 93.432 67.7265 91.864 65.8065 89.816C63.9505 87.768 62.4785 85.272 61.3905 82.328C60.3665 79.32 59.8545 75.896 59.8545 72.056C59.8545 68.216 60.4305 64.792 61.5825 61.784C62.7345 58.712 64.2705 56.152 66.1905 54.104C68.1105 52.056 70.3185 50.488 72.8145 49.4C75.3745 48.312 78.0625 47.768 80.8785 47.768C84.0785 47.768 86.7345 48.344 88.8465 49.496C90.9585 50.648 92.8145 51.96 94.4145 53.432L91.9185 56.408C90.4465 55 88.8145 53.848 87.0225 52.952C85.2305 51.992 83.2145 51.512 80.9745 51.512C78.6065 51.512 76.3985 52.024 74.3505 53.048C72.3665 54.008 70.6065 55.416 69.0705 57.272C67.5985 59.064 66.4145 61.208 65.5185 63.704C64.6865 66.2 64.2705 68.984 64.2705 72.056C64.2705 75.064 64.6545 77.816 65.4225 80.312C66.2545 82.808 67.3745 84.952 68.7825 86.744C70.2545 88.536 72.0145 89.944 74.0625 90.968C76.1745 91.928 78.4785 92.408 80.9745 92.408C83.4065 92.408 85.6465 91.896 87.6945 90.872C89.8065 89.848 91.6625 88.6 93.2625 87.128L95.4705 90.104C93.4865 91.832 91.2785 93.272 88.8465 94.424C86.4145 95.576 83.7265 96.152 80.7825 96.152ZM120.762 96.152C118.906 96.152 117.178 95.896 115.578 95.384C113.978 94.872 112.57 94.104 111.354 93.08C110.138 92.056 109.178 90.744 108.474 89.144C107.77 87.544 107.418 85.656 107.418 83.48C107.418 78.36 109.786 74.488 114.522 71.864C119.322 69.176 126.874 67.256 137.178 66.104C137.178 64.376 137.05 62.648 136.794 60.92C136.538 59.128 135.994 57.56 135.162 56.216C134.33 54.808 133.21 53.688 131.802 52.856C130.394 51.96 128.538 51.512 126.234 51.512C123.162 51.512 120.346 52.12 117.786 53.336C115.226 54.552 113.146 55.736 111.546 56.888L109.626 53.72C110.458 53.144 111.45 52.504 112.602 51.8C113.818 51.096 115.162 50.456 116.634 49.88C118.106 49.304 119.706 48.824 121.434 48.44C123.162 47.992 124.954 47.768 126.81 47.768C129.498 47.768 131.77 48.248 133.626 49.208C135.482 50.104 136.986 51.352 138.138 52.952C139.29 54.552 140.122 56.44 140.634 58.616C141.146 60.728 141.402 63.032 141.402 65.528V95H137.754L137.37 89.048H137.082C134.714 90.904 132.154 92.568 129.402 94.04C126.714 95.448 123.834 96.152 120.762 96.152ZM121.53 92.504C124.218 92.504 126.778 91.864 129.21 90.584C131.642 89.304 134.298 87.448 137.178 85.016V69.368C132.442 69.944 128.442 70.648 125.178 71.48C121.914 72.312 119.29 73.304 117.306 74.456C115.322 75.608 113.882 76.92 112.986 78.392C112.154 79.864 111.738 81.496 111.738 83.288C111.738 84.952 111.994 86.36 112.506 87.512C113.018 88.664 113.722 89.624 114.618 90.392C115.514 91.096 116.538 91.64 117.69 92.024C118.906 92.344 120.186 92.504 121.53 92.504ZM162.638 95V48.92H166.286L166.67 57.464H166.958C168.494 54.584 170.35 52.248 172.526 50.456C174.766 48.664 177.262 47.768 180.014 47.768C180.91 47.768 181.71 47.832 182.414 47.96C183.118 48.088 183.854 48.344 184.622 48.728L183.662 52.568C182.894 52.248 182.222 52.056 181.646 51.992C181.07 51.864 180.334 51.8 179.438 51.8C177.39 51.8 175.214 52.696 172.91 54.488C170.67 56.216 168.654 59.256 166.862 63.608V95H162.638ZM203.571 96.152C199.795 96.152 197.907 93.72 197.907 88.856V25.976H202.131V89.432C202.131 90.456 202.323 91.224 202.707 91.736C203.091 92.184 203.571 92.408 204.147 92.408C204.339 92.408 204.531 92.408 204.723 92.408C204.979 92.408 205.363 92.344 205.875 92.216L206.643 95.672C206.195 95.8 205.747 95.896 205.299 95.96C204.851 96.088 204.275 96.152 203.571 96.152ZM242.96 96.152C240.016 96.152 237.232 95.608 234.608 94.52C232.048 93.432 229.808 91.864 227.888 89.816C225.968 87.704 224.432 85.176 223.28 82.232C222.192 79.224 221.648 75.832 221.648 72.056C221.648 68.28 222.192 64.888 223.28 61.88C224.432 58.872 225.936 56.344 227.792 54.296C229.712 52.184 231.856 50.584 234.224 49.496C236.656 48.344 239.152 47.768 241.712 47.768C247.216 47.768 251.536 49.624 254.672 53.336C257.808 57.048 259.376 62.296 259.376 69.08C259.376 69.656 259.376 70.232 259.376 70.808C259.376 71.384 259.312 71.96 259.184 72.536H225.968C226.032 75.416 226.48 78.104 227.312 80.6C228.144 83.032 229.296 85.144 230.768 86.936C232.304 88.664 234.128 90.04 236.24 91.064C238.352 92.024 240.72 92.504 243.344 92.504C245.84 92.504 248.08 92.152 250.064 91.448C252.112 90.68 254 89.656 255.728 88.376L257.456 91.64C255.6 92.728 253.552 93.752 251.312 94.712C249.136 95.672 246.352 96.152 242.96 96.152ZM225.968 69.08H255.344C255.344 63.128 254.128 58.712 251.696 55.832C249.264 52.888 245.968 51.416 241.808 51.416C239.824 51.416 237.936 51.832 236.144 52.664C234.352 53.432 232.72 54.584 231.248 56.12C229.84 57.656 228.656 59.512 227.696 61.688C226.8 63.864 226.224 66.328 225.968 69.08ZM288.333 96.152C286.093 96.152 284.237 95.8 282.765 95.096C281.293 94.456 280.109 93.528 279.213 92.312C278.317 91.096 277.677 89.624 277.293 87.896C276.973 86.168 276.813 84.28 276.813 82.232V52.568H269.613V49.304L276.909 48.92L277.485 35.576H281.133V48.92H294.477V52.568H281.133V82.616C281.133 84.088 281.229 85.432 281.421 86.648C281.677 87.8 282.093 88.824 282.669 89.72C283.245 90.552 284.013 91.224 284.973 91.736C285.997 92.184 287.309 92.408 288.909 92.408C289.805 92.408 290.765 92.28 291.789 92.024C292.877 91.704 293.837 91.352 294.669 90.968L295.821 94.424C294.477 94.936 293.133 95.352 291.789 95.672C290.445 95.992 289.293 96.152 288.333 96.152Z" fill="black"/>
<path d="M237.656 113V104.36H238.34L238.412 105.692H238.466C238.85 105.248 239.276 104.882 239.744 104.594C240.224 104.294 240.704 104.144 241.184 104.144C241.88 104.144 242.414 104.306 242.786 104.63C243.158 104.942 243.422 105.368 243.578 105.908C244.082 105.368 244.568 104.942 245.036 104.63C245.516 104.306 246.008 104.144 246.512 104.144C248.24 104.144 249.104 105.248 249.104 107.456V113H248.294V107.564C248.294 106.64 248.138 105.962 247.826 105.53C247.514 105.086 247.028 104.864 246.368 104.864C245.588 104.864 244.724 105.404 243.776 106.484V113H242.984V107.564C242.984 106.64 242.828 105.962 242.516 105.53C242.204 105.086 241.712 104.864 241.04 104.864C240.26 104.864 239.396 105.404 238.448 106.484V113H237.656ZM254.693 113.216C254.345 113.216 254.021 113.168 253.721 113.072C253.421 112.976 253.157 112.832 252.929 112.64C252.701 112.448 252.521 112.202 252.389 111.902C252.257 111.602 252.191 111.248 252.191 110.84C252.191 109.88 252.635 109.154 253.523 108.662C254.423 108.158 255.839 107.798 257.771 107.582C257.771 107.258 257.747 106.934 257.699 106.61C257.651 106.274 257.549 105.98 257.393 105.728C257.237 105.464 257.027 105.254 256.763 105.098C256.499 104.93 256.151 104.846 255.719 104.846C255.143 104.846 254.615 104.96 254.135 105.188C253.655 105.416 253.265 105.638 252.965 105.854L252.605 105.26C252.761 105.152 252.947 105.032 253.163 104.9C253.391 104.768 253.643 104.648 253.919 104.54C254.195 104.432 254.495 104.342 254.819 104.27C255.143 104.186 255.479 104.144 255.827 104.144C256.331 104.144 256.757 104.234 257.105 104.414C257.453 104.582 257.735 104.816 257.951 105.116C258.167 105.416 258.323 105.77 258.419 106.178C258.515 106.574 258.563 107.006 258.563 107.474V113H257.879L257.807 111.884H257.753C257.309 112.232 256.829 112.544 256.313 112.82C255.809 113.084 255.269 113.216 254.693 113.216ZM254.837 112.532C255.341 112.532 255.821 112.412 256.277 112.172C256.733 111.932 257.231 111.584 257.771 111.128V108.194C256.883 108.302 256.133 108.434 255.521 108.59C254.909 108.746 254.417 108.932 254.045 109.148C253.673 109.364 253.403 109.61 253.235 109.886C253.079 110.162 253.001 110.468 253.001 110.804C253.001 111.116 253.049 111.38 253.145 111.596C253.241 111.812 253.373 111.992 253.541 112.136C253.709 112.268 253.901 112.37 254.117 112.442C254.345 112.502 254.585 112.532 254.837 112.532ZM265.011 117.158C263.919 117.158 263.055 116.942 262.419 116.51C261.783 116.078 261.465 115.496 261.465 114.764C261.465 114.38 261.579 114.008 261.807 113.648C262.035 113.288 262.347 112.964 262.743 112.676V112.604C262.527 112.472 262.347 112.292 262.203 112.064C262.059 111.836 261.987 111.554 261.987 111.218C261.987 110.834 262.095 110.51 262.311 110.246C262.527 109.97 262.731 109.766 262.923 109.634V109.562C262.647 109.322 262.395 108.998 262.167 108.59C261.951 108.182 261.843 107.714 261.843 107.186C261.843 106.742 261.921 106.334 262.077 105.962C262.233 105.59 262.449 105.272 262.725 105.008C263.001 104.732 263.325 104.522 263.697 104.378C264.069 104.222 264.465 104.144 264.885 104.144C265.125 104.144 265.341 104.168 265.533 104.216C265.725 104.252 265.887 104.3 266.019 104.36H268.953V105.026H266.937C267.213 105.266 267.441 105.578 267.621 105.962C267.801 106.334 267.891 106.748 267.891 107.204C267.891 107.648 267.813 108.056 267.657 108.428C267.501 108.8 267.285 109.124 267.009 109.4C266.745 109.664 266.427 109.874 266.055 110.03C265.695 110.174 265.305 110.246 264.885 110.246C264.645 110.246 264.393 110.216 264.129 110.156C263.877 110.096 263.649 110.006 263.445 109.886C263.253 110.042 263.085 110.216 262.941 110.408C262.809 110.6 262.743 110.84 262.743 111.128C262.743 111.44 262.857 111.71 263.085 111.938C263.313 112.154 263.751 112.262 264.399 112.262H266.253C267.225 112.262 267.939 112.424 268.395 112.748C268.863 113.06 269.097 113.558 269.097 114.242C269.097 114.614 269.001 114.974 268.809 115.322C268.617 115.682 268.341 115.994 267.981 116.258C267.633 116.534 267.207 116.75 266.703 116.906C266.199 117.074 265.635 117.158 265.011 117.158ZM264.885 109.616C265.185 109.616 265.467 109.562 265.731 109.454C266.007 109.334 266.247 109.166 266.451 108.95C266.655 108.734 266.817 108.476 266.937 108.176C267.057 107.876 267.117 107.546 267.117 107.186C267.117 106.826 267.057 106.496 266.937 106.196C266.817 105.896 266.655 105.644 266.451 105.44C266.259 105.236 266.025 105.08 265.749 104.972C265.473 104.852 265.185 104.792 264.885 104.792C264.573 104.792 264.279 104.852 264.003 104.972C263.739 105.08 263.505 105.236 263.301 105.44C263.097 105.644 262.935 105.896 262.815 106.196C262.695 106.484 262.635 106.814 262.635 107.186C262.635 107.546 262.695 107.876 262.815 108.176C262.935 108.476 263.097 108.734 263.301 108.95C263.517 109.166 263.757 109.334 264.021 109.454C264.297 109.562 264.585 109.616 264.885 109.616ZM265.101 116.51C265.581 116.51 266.019 116.444 266.415 116.312C266.811 116.192 267.147 116.03 267.423 115.826C267.699 115.622 267.909 115.388 268.053 115.124C268.209 114.872 268.287 114.608 268.287 114.332C268.287 113.852 268.113 113.51 267.765 113.306C267.429 113.114 266.937 113.018 266.289 113.018H264.435C264.339 113.018 264.189 113.012 263.985 113C263.793 112.976 263.583 112.934 263.355 112.874C262.959 113.15 262.671 113.444 262.491 113.756C262.311 114.068 262.221 114.38 262.221 114.692C262.221 115.232 262.467 115.67 262.959 116.006C263.463 116.342 264.177 116.51 265.101 116.51ZM273.123 113.216C272.775 113.216 272.451 113.168 272.151 113.072C271.851 112.976 271.587 112.832 271.359 112.64C271.131 112.448 270.951 112.202 270.819 111.902C270.687 111.602 270.621 111.248 270.621 110.84C270.621 109.88 271.065 109.154 271.953 108.662C272.853 108.158 274.269 107.798 276.201 107.582C276.201 107.258 276.177 106.934 276.129 106.61C276.081 106.274 275.979 105.98 275.823 105.728C275.667 105.464 275.457 105.254 275.193 105.098C274.929 104.93 274.581 104.846 274.149 104.846C273.573 104.846 273.045 104.96 272.565 105.188C272.085 105.416 271.695 105.638 271.395 105.854L271.035 105.26C271.191 105.152 271.377 105.032 271.593 104.9C271.821 104.768 272.073 104.648 272.349 104.54C272.625 104.432 272.925 104.342 273.249 104.27C273.573 104.186 273.909 104.144 274.257 104.144C274.761 104.144 275.187 104.234 275.535 104.414C275.883 104.582 276.165 104.816 276.381 105.116C276.597 105.416 276.753 105.77 276.849 106.178C276.945 106.574 276.993 107.006 276.993 107.474V113H276.309L276.237 111.884H276.183C275.739 112.232 275.259 112.544 274.743 112.82C274.239 113.084 273.699 113.216 273.123 113.216ZM273.267 112.532C273.771 112.532 274.251 112.412 274.707 112.172C275.163 111.932 275.661 111.584 276.201 111.128V108.194C275.313 108.302 274.563 108.434 273.951 108.59C273.339 108.746 272.847 108.932 272.475 109.148C272.103 109.364 271.833 109.61 271.665 109.886C271.509 110.162 271.431 110.468 271.431 110.804C271.431 111.116 271.479 111.38 271.575 111.596C271.671 111.812 271.803 111.992 271.971 112.136C272.139 112.268 272.331 112.37 272.547 112.442C272.775 112.502 273.015 112.532 273.267 112.532ZM279.445 113V112.568L284.557 105.044H280.003V104.36H285.583V104.774L280.489 112.298H285.763V113H279.445ZM288.432 113V104.36H289.224V113H288.432ZM288.846 102.272C288.642 102.272 288.468 102.206 288.324 102.074C288.192 101.942 288.126 101.774 288.126 101.57C288.126 101.342 288.192 101.168 288.324 101.048C288.468 100.916 288.642 100.85 288.846 100.85C289.05 100.85 289.218 100.916 289.35 101.048C289.494 101.168 289.566 101.342 289.566 101.57C289.566 101.774 289.494 101.942 289.35 102.074C289.218 102.206 289.05 102.272 288.846 102.272ZM293.085 113V104.36H293.769L293.841 105.692H293.895C294.339 105.248 294.795 104.882 295.263 104.594C295.731 104.294 296.265 104.144 296.865 104.144C297.765 104.144 298.425 104.414 298.845 104.954C299.265 105.494 299.475 106.328 299.475 107.456V113H298.683V107.564C298.683 106.64 298.527 105.962 298.215 105.53C297.915 105.086 297.411 104.864 296.703 104.864C296.187 104.864 295.719 105.002 295.299 105.278C294.879 105.542 294.405 105.944 293.877 106.484V113H293.085ZM306.482 113.216C305.93 113.216 305.408 113.114 304.916 112.91C304.436 112.706 304.016 112.412 303.656 112.028C303.296 111.632 303.008 111.158 302.792 110.606C302.588 110.042 302.486 109.406 302.486 108.698C302.486 107.99 302.588 107.354 302.792 106.79C303.008 106.226 303.29 105.752 303.638 105.368C303.998 104.972 304.4 104.672 304.844 104.468C305.3 104.252 305.768 104.144 306.248 104.144C307.28 104.144 308.09 104.492 308.678 105.188C309.266 105.884 309.56 106.868 309.56 108.14C309.56 108.248 309.56 108.356 309.56 108.464C309.56 108.572 309.548 108.68 309.524 108.788H303.296C303.308 109.328 303.392 109.832 303.548 110.3C303.704 110.756 303.92 111.152 304.196 111.488C304.484 111.812 304.826 112.07 305.222 112.262C305.618 112.442 306.062 112.532 306.554 112.532C307.022 112.532 307.442 112.466 307.814 112.334C308.198 112.19 308.552 111.998 308.876 111.758L309.2 112.37C308.852 112.574 308.468 112.766 308.048 112.946C307.64 113.126 307.118 113.216 306.482 113.216ZM303.296 108.14H308.804C308.804 107.024 308.576 106.196 308.12 105.656C307.664 105.104 307.046 104.828 306.266 104.828C305.894 104.828 305.54 104.906 305.204 105.062C304.868 105.206 304.562 105.422 304.286 105.71C304.022 105.998 303.8 106.346 303.62 106.754C303.452 107.162 303.344 107.624 303.296 108.14Z" fill="black"/>
</svg>
